<?xml version="1.0" standalone="no"?>
<!DOCTYPE svg PUBLIC "-//W3C//DTD SVG 20010904//EN"
 "http://www.w3.org/TR/2001/REC-SVG-20010904/DTD/svg10.dtd">
<svg version="1.0" xmlns="http://www.w3.org/2000/svg"
 width="4167.000000pt" height="4167.000000pt" viewBox="0 0 4167.000000 4167.000000"
 preserveAspectRatio="xMidYMid meet">

<g transform="translate(0.000000,4167.000000) scale(0.100000,-0.100000)"
fill="#000000" stroke="none">
<path d="M20545 35833 c-2556 -47 -5051 -745 -7250 -2026 -1752 -1021 -3294
-2398 -4497 -4017 -827 -1113 -1481 -2300 -1973 -3580 -859 -2234 -1165 -4664
-894 -7085 456 -4074 2599 -7809 5904 -10290 2241 -1683 4878 -2693 7675
-2940 736 -65 1650 -72 2395 -20 3604 256 6975 1795 9535 4355 2069 2070 3492
4700 4079 7543 226 1095 321 2094 308 3247 -7 587 -29 966 -88 1495 -451 4084
-2578 7810 -5879 10302 -2343 1768 -5119 2797 -8060 2988 -249 16 -884 36
-1035 33 -49 -1 -148 -3 -220 -5z m997 -1014 c136 -29 262 -131 325 -265 34
-71 37 -86 40 -183 2 -58 1 -140 -4 -181 l-8 -75 -100 4 c-153 5 -190 13 -188
36 1 11 3 73 4 137 2 110 0 119 -25 161 -43 74 -133 106 -209 73 -121 -52
-155 -221 -66 -330 16 -19 107 -84 203 -146 272 -173 336 -256 344 -442 5
-117 -17 -202 -76 -294 -50 -77 -109 -128 -200 -172 -63 -30 -86 -36 -167 -40
-157 -8 -268 38 -376 156 -98 107 -138 234 -124 397 l7 87 136 -7 c76 -4 141
-11 147 -16 5 -5 8 -47 6 -93 -2 -63 2 -92 14 -117 22 -44 53 -77 87 -95 35
-18 111 -18 147 0 38 20 89 80 97 114 3 15 7 32 9 39 6 20 -14 79 -37 109 -12
15 -99 78 -194 140 -203 133 -235 160 -286 238 -56 87 -78 168 -78 286 0 160
46 270 153 366 117 105 266 145 419 113z m-2527 -141 c27 -156 223 -1624 217
-1629 -11 -10 -216 -37 -222 -29 -3 4 -119 183 -259 399 -140 215 -256 390
-258 388 -2 -3 26 -190 61 -418 42 -262 62 -417 56 -423 -12 -12 -263 -47
-271 -38 -10 11 -233 1651 -226 1658 7 7 173 33 213 34 17 0 68 -78 279 -430
142 -237 259 -429 261 -428 1 2 -28 206 -66 453 -37 248 -65 453 -61 457 6 7
185 35 238 37 29 1 33 -2 38 -31z m4105 -45 c69 -14 128 -29 132 -33 5 -3 -24
-149 -62 -324 -39 -176 -69 -321 -67 -323 7 -6 337 -76 342 -72 2 3 34 144 70
314 37 171 71 314 76 319 5 6 62 -2 144 -19 109 -23 135 -31 135 -45 0 -31
-341 -1615 -350 -1623 -10 -11 -261 41 -276 57 -8 8 7 93 57 321 37 171 71
326 74 345 l6 35 -172 37 c-95 21 -173 37 -174 35 -1 -1 -35 -155 -75 -342
-40 -187 -76 -344 -81 -349 -10 -11 -277 44 -282 59 -2 5 77 375 174 820 98
446 178 811 179 813 1 5 32 0 150 -25z m-6253 -385 c35 -57 732 -1513 726
-1519 -8 -7 -249 -79 -266 -79 -4 0 -26 38 -48 84 l-39 84 -70 -19 c-155 -44
-232 -67 -236 -71 -2 -3 1 -44 8 -91 6 -48 8 -90 5 -93 -15 -15 -268 -81 -274
-71 -12 19 -175 1679 -166 1688 11 11 299 97 330 98 12 1 25 -5 30 -11z m8395
-149 c239 -52 403 -286 368 -528 -9 -63 -264 -790 -312 -889 -30 -63 -116
-151 -189 -194 -210 -124 -485 -66 -617 131 -69 104 -86 159 -86 286 l0 110
148 400 c81 220 159 422 174 450 93 174 316 276 514 234z m-9938 -425 c74
-154 666 -1468 666 -1478 0 -7 -57 -39 -127 -70 -102 -46 -129 -54 -139 -44
-6 7 -121 255 -254 551 -134 296 -246 540 -250 542 -3 2 -21 -80 -40 -183 -18
-103 -36 -197 -39 -210 -6 -21 -15 -17 -186 88 -98 60 -181 108 -182 106 -2
-2 107 -250 242 -551 135 -301 245 -553 245 -559 0 -7 -57 -38 -127 -70 -120
-53 -129 -56 -142 -39 -7 10 -163 353 -346 763 -254 568 -330 748 -322 757 15
15 255 123 274 123 7 0 88 -45 178 -100 91 -55 165 -96 165 -92 1 30 70 376
77 383 13 13 267 127 278 125 6 -1 19 -20 29 -42z m11675 -315 c251 -57 412
-329 346 -583 -9 -34 -99 -217 -218 -444 -172 -328 -211 -395 -260 -449 -100
-107 -236 -160 -387 -150 -182 11 -339 130 -403 305 -26 74 -34 226 -14 299 7
28 108 228 223 444 179 336 217 400 264 448 58 59 135 104 217 126 58 16 172
18 232 4z m1671 -994 c190 -136 355 -258 368 -269 l22 -21 -81 -113 c-44 -61
-86 -112 -93 -112 -7 0 -68 40 -136 89 -111 79 -126 87 -136 73 -7 -10 -188
-260 -402 -557 -237 -328 -396 -540 -405 -539 -18 2 -227 152 -227 164 0 4
178 254 396 555 218 301 398 553 400 560 3 6 -52 52 -120 101 -69 49 -126 94
-126 99 0 10 109 163 151 213 14 16 24 20 32 14 7 -5 167 -120 357 -257z
m-15297 190 c93 -19 178 -67 241 -136 100 -108 143 -229 133 -375 l-6 -80 50
-18 c62 -23 155 -90 195 -142 17 -21 95 -138 173 -258 164 -255 164 -217 1
-320 -81 -50 -107 -63 -116 -53 -6 6 -71 107 -145 222 -73 116 -147 223 -164
238 -38 35 -116 59 -167 51 -21 -4 -64 -22 -96 -42 -31 -19 -69 -42 -84 -51
-16 -9 -28 -19 -28 -24 0 -4 83 -138 185 -299 102 -160 185 -297 185 -304 0
-13 -213 -154 -234 -154 -11 0 -885 1360 -901 1401 -3 10 64 58 217 155 261
166 271 172 352 189 80 18 127 18 209 0z m7822 -195 c1471 -59 2856 -378 4200
-967 223 -98 707 -338 915 -454 802 -447 1510 -953 2200 -1573 190 -170 621
-602 791 -791 1092 -1218 1879 -2569 2385 -4090 1040 -3130 703 -6534 -929
-9375 -1033 -1798 -2499 -3264 -4289 -4289 -1485 -849 -3187 -1366 -4898
-1485 -753 -53 -1428 -39 -2150 45 -2241 259 -4334 1160 -6075 2615 -974 813
-1815 1792 -2465 2868 -644 1067 -1114 2241 -1385 3456 -130 583 -223 1243
-255 1800 -6 107 -15 249 -20 315 -11 135 2 915 20 1165 142 2055 799 3976
1938 5669 768 1141 1716 2123 2824 2923 2074 1498 4638 2270 7193 2168z
m-9322 -925 c48 -57 87 -105 87 -108 0 -2 -86 -78 -191 -167 l-191 -162 25
-27 c13 -14 66 -75 117 -136 52 -60 97 -110 102 -110 4 0 90 71 192 158 102
86 187 157 189 157 9 0 187 -209 187 -219 0 -6 -82 -80 -182 -166 -101 -86
-184 -160 -186 -164 -2 -7 247 -307 260 -314 2 -1 86 68 186 153 100 85 188
156 196 158 15 3 199 -204 194 -219 -5 -15 -590 -509 -603 -509 -14 0 -1085
1258 -1084 1274 0 17 591 515 603 509 6 -2 50 -51 99 -108z m17975 24 c56 -50
102 -96 102 -103 0 -13 -1068 -1223 -1097 -1243 -16 -10 -32 1 -118 78 -56 49
-100 96 -100 106 0 16 1091 1252 1106 1253 3 0 51 -41 107 -91z m928 -864 l73
-81 -200 -429 c-110 -237 -207 -444 -214 -462 -10 -23 80 54 323 278 185 170
343 309 352 308 23 -1 172 -175 168 -197 -4 -22 -1213 -1112 -1233 -1112 -13
0 -69 55 -129 127 l-27 32 186 437 c102 241 184 438 183 440 -2 1 -142 -128
-313 -287 -170 -159 -314 -289 -320 -289 -19 0 -170 181 -170 205 0 17 141
150 605 568 394 356 612 545 624 544 10 -1 51 -38 92 -82z m-19702 -861 c340
-300 620 -552 623 -560 6 -17 -165 -212 -187 -213 -8 -1 -131 103 -274 229
-142 127 -262 230 -265 230 -11 0 -232 -253 -229 -261 2 -5 118 -110 258 -235
143 -128 255 -235 255 -245 0 -25 -166 -210 -185 -207 -8 2 -293 251 -632 553
l-616 550 15 25 c8 14 52 65 97 114 l82 89 247 -222 246 -221 39 42 c115 127
192 216 191 224 0 5 -108 104 -239 219 -132 116 -239 216 -240 223 0 17 171
212 186 212 6 0 289 -246 628 -546z m20846 -675 c77 -12 178 -56 236 -104 59
-48 120 -145 145 -227 41 -133 14 -290 -69 -409 -34 -49 -126 -128 -201 -172
l-30 -17 -76 112 c-43 62 -79 118 -82 124 -2 7 13 22 33 35 99 61 144 126 144
206 0 110 -105 185 -217 154 -28 -7 -163 -92 -371 -232 -180 -122 -338 -231
-350 -243 -90 -81 -78 -225 23 -284 32 -18 51 -22 97 -19 48 3 68 11 127 50
l70 47 -44 64 c-25 35 -45 70 -45 78 0 19 226 172 240 163 6 -4 67 -91 135
-193 118 -176 124 -188 107 -203 -49 -47 -393 -266 -442 -282 -178 -57 -364
-15 -491 112 -151 152 -181 368 -78 562 17 32 50 77 73 101 48 51 721 507 800
544 46 21 125 40 181 43 11 0 49 -4 85 -10z m-22428 -497 c60 -21 278 -157
278 -173 0 -9 -132 -212 -151 -233 -4 -4 -58 24 -120 63 -109 69 -131 77 -194
72 -99 -9 -171 -113 -145 -210 25 -92 137 -169 232 -158 47 6 91 26 318 144
242 127 403 122 578 -17 179 -143 226 -427 103 -622 -129 -202 -407 -278 -620
-168 -74 37 -151 92 -151 106 0 22 143 233 158 234 7 0 41 -19 75 -42 54 -37
70 -43 127 -46 55 -3 70 0 100 20 72 49 100 134 69 215 -15 40 -67 91 -106
104 -53 17 -93 4 -293 -96 -220 -110 -276 -129 -385 -128 -245 2 -457 181
-497 421 -40 236 116 467 355 528 70 18 198 11 269 -14z m23316 -1750 c55
-145 102 -265 104 -267 2 -2 133 -11 292 -19 158 -8 290 -16 292 -19 2 -2 -82
-73 -188 -158 -105 -85 -208 -168 -228 -184 l-37 -31 47 -174 c26 -96 61 -226
78 -288 l31 -113 -37 23 c-20 12 -129 83 -241 156 -112 74 -209 136 -216 138
-7 3 -122 -67 -256 -154 -134 -88 -245 -158 -247 -157 -2 2 31 129 72 283 42
155 76 283 76 285 0 2 -103 87 -229 188 -126 101 -228 185 -227 187 2 1 136
10 297 18 162 9 294 16 295 17 0 1 47 125 104 275 57 150 107 269 111 265 4
-4 52 -127 107 -271z m992 -2087 c56 -148 105 -273 108 -276 4 -4 136 -13 295
-20 158 -7 287 -16 287 -19 0 -4 -101 -89 -225 -189 -124 -100 -225 -183 -225
-185 0 -3 34 -129 75 -282 42 -152 74 -279 71 -281 -2 -2 -113 67 -247 154
-133 87 -246 157 -249 156 -4 -1 -114 -72 -245 -158 -131 -85 -242 -155 -245
-155 -4 0 15 80 42 178 26 97 61 225 77 284 l29 106 -216 174 c-118 95 -222
178 -231 185 -14 10 -14 12 -1 16 8 3 142 11 297 18 l281 12 68 176 c127 334
146 382 149 379 1 -2 49 -124 105 -273z m439 -2184 c55 -145 102 -265 104
-267 2 -3 134 -11 293 -20 159 -8 290 -17 292 -19 2 -1 -98 -85 -222 -185
-132 -107 -226 -189 -226 -199 1 -9 34 -137 75 -286 40 -148 72 -271 71 -273
-2 -1 -111 68 -242 154 -131 86 -243 158 -249 160 -5 2 -120 -68 -255 -155
-134 -88 -246 -159 -247 -157 -2 2 30 127 72 279 41 152 75 280 75 285 0 4
-103 91 -229 192 -126 102 -228 186 -227 187 1 1 134 9 295 17 162 9 295 17
296 18 1 2 49 126 106 275 57 150 107 269 111 265 4 -4 52 -126 107 -271z
m-26591 -1279 c55 -145 103 -266 105 -268 3 -3 135 -12 293 -20 158 -8 290
-16 292 -18 2 -2 -98 -86 -222 -186 -133 -107 -226 -189 -226 -198 0 -10 34
-138 74 -287 40 -148 72 -271 71 -273 -1 -2 -114 70 -249 158 l-247 162 -52
-33 c-28 -19 -140 -91 -247 -161 -107 -70 -196 -126 -198 -124 -2 2 31 128 72
280 42 152 76 280 76 284 0 4 -103 91 -230 192 -126 102 -227 186 -222 187 4
1 137 9 296 17 159 9 290 17 291 18 1 2 49 126 106 276 56 149 106 269 110
265 4 -5 52 -127 107 -271z m227 -2387 c55 -143 103 -263 107 -266 5 -3 138
-11 296 -18 158 -8 288 -15 290 -16 2 -2 -101 -87 -228 -190 -171 -138 -230
-191 -226 -203 30 -100 146 -545 143 -548 -2 -2 -112 66 -243 152 -131 86
-243 157 -249 157 -5 0 -118 -70 -250 -157 -132 -86 -241 -152 -243 -147 -2 7
124 492 143 548 2 7 -97 94 -220 193 -123 99 -226 184 -229 188 -3 5 122 14
277 21 155 7 289 16 297 20 8 4 45 88 83 187 132 348 140 367 147 353 4 -8 51
-131 105 -274z m650 -2025 c53 -140 100 -258 103 -262 4 -3 120 -11 257 -17
138 -7 269 -14 293 -17 l42 -5 -212 -171 c-117 -94 -221 -178 -231 -187 -17
-17 -15 -29 58 -296 41 -153 73 -280 71 -283 -3 -2 -113 66 -244 152 -131 86
-243 156 -249 156 -6 0 -117 -70 -248 -155 -131 -86 -240 -154 -243 -151 -4 5
25 119 117 457 l29 107 -229 183 c-171 137 -224 185 -211 190 9 3 141 12 292
18 151 7 276 14 278 16 2 1 45 114 97 251 119 313 115 302 125 284 4 -8 52
-130 105 -270z m1209 -2420 c31 -50 56 -96 56 -103 0 -6 -187 -128 -415 -271
-228 -142 -413 -261 -410 -266 2 -4 77 -10 166 -14 90 -3 164 -8 166 -10 2 -2
-28 -74 -66 -160 -38 -87 -64 -155 -57 -153 7 3 198 121 426 262 334 207 415
254 425 243 19 -21 115 -178 115 -187 0 -11 -1145 -721 -1162 -721 -14 0 -138
193 -138 214 0 7 27 75 60 150 34 76 60 140 58 141 -2 2 -71 7 -155 11 -83 3
-155 9 -161 13 -14 9 -132 201 -132 214 1 13 1136 727 1156 727 6 0 37 -41 68
-90z m22396 -741 c338 -161 619 -295 624 -300 6 -6 -89 -154 -124 -192 -6 -7
-616 294 -760 376 -43 24 -34 15 338 -337 144 -137 262 -253 262 -258 0 -15
-102 -158 -113 -158 -5 0 -183 88 -396 196 -230 117 -376 186 -361 171 14 -13
156 -147 315 -297 160 -150 291 -276 293 -281 5 -12 -120 -189 -133 -189 -5 0
-230 220 -500 490 l-489 489 54 78 c29 43 61 88 69 100 9 12 23 23 31 23 8 0
147 -67 309 -150 162 -82 295 -149 297 -147 1 1 -108 105 -242 231 -134 125
-244 235 -244 242 0 20 130 204 144 204 6 0 287 -131 626 -291z m-21541 -539
c34 -44 64 -87 68 -96 4 -10 -11 -33 -46 -68 l-51 -52 76 -100 c42 -54 79
-101 81 -104 3 -3 31 10 63 28 32 17 65 32 72 32 15 0 154 -177 146 -185 -11
-11 -1224 -635 -1234 -635 -17 0 -187 227 -181 242 6 18 926 1018 936 1018 4
0 36 -36 70 -80z m20488 -906 c233 -296 423 -544 423 -551 0 -15 -178 -217
-195 -221 -11 -3 -1146 696 -1173 722 -11 11 0 28 63 100 43 47 79 86 81 86 2
0 32 -18 66 -41 l63 -41 48 54 c26 29 65 74 87 99 l39 45 -45 55 c-24 30 -43
59 -42 66 5 20 142 173 153 170 5 -2 199 -246 432 -543z m-19433 -313 c119
-126 216 -235 216 -243 0 -17 -975 -933 -994 -933 -7 0 -98 90 -201 200 -103
110 -202 215 -219 233 l-31 33 85 79 c47 43 89 79 93 80 7 0 68 -63 234 -239
l51 -55 110 104 109 105 -138 146 c-77 80 -138 150 -138 155 1 5 40 45 86 89
l84 80 52 -55 c29 -30 93 -98 143 -151 l90 -96 123 116 123 116 -136 145 c-75
80 -136 150 -136 156 0 13 155 164 169 164 5 0 106 -103 225 -229z m18479
-728 c246 -275 447 -506 447 -512 0 -12 -286 -270 -344 -311 -70 -47 -133 -63
-239 -58 -76 3 -103 9 -149 31 -66 32 -154 123 -186 190 -23 48 -47 171 -37
188 4 5 0 11 -7 13 -92 25 -131 40 -169 65 -49 30 -359 364 -358 384 1 15 156
152 172 152 7 0 75 -69 152 -154 77 -85 152 -163 166 -174 33 -24 106 -33 150
-18 19 7 60 36 92 65 l58 52 -186 210 c-103 115 -190 215 -193 223 -7 18 146
162 169 158 9 -1 217 -228 462 -504z m-17433 -231 c42 -37 44 -41 29 -58 -9
-11 -166 -197 -349 -414 -183 -217 -340 -403 -349 -414 -15 -17 -12 -21 49
-75 35 -31 80 -70 99 -87 l35 -32 -73 -86 c-40 -47 -79 -86 -86 -86 -10 0
-508 413 -574 476 -15 14 1 38 101 149 l45 49 97 -83 c53 -45 100 -81 105 -79
4 1 167 192 361 423 195 231 358 423 364 427 9 6 48 -22 146 -110z m15923
-362 c32 -12 77 -36 100 -54 44 -33 137 -149 137 -169 -1 -12 -171 -137 -187
-137 -5 0 -26 23 -46 50 -49 66 -89 90 -149 90 -38 0 -54 -6 -82 -30 -60 -53
-70 -126 -27 -196 34 -55 68 -60 289 -39 211 21 260 17 351 -27 66 -31 166
-135 199 -205 24 -52 27 -69 27 -168 0 -100 -3 -115 -28 -167 -84 -171 -281
-256 -464 -199 -37 11 -90 37 -116 56 -49 37 -176 198 -177 225 0 13 167 140
183 140 4 0 34 -36 68 -81 33 -44 75 -89 93 -100 61 -37 148 -15 187 48 17 27
20 45 17 89 -6 68 -45 121 -112 148 -46 20 -49 20 -199 1 -251 -30 -330 -22
-424 42 -60 40 -123 126 -148 203 -26 77 -18 208 17 282 88 188 294 272 491
198z m-906 -1269 c123 -360 220 -658 216 -662 -20 -20 -247 -140 -258 -137
-14 3 -875 1063 -875 1077 0 10 183 111 201 111 8 0 24 -15 37 -33 12 -17 31
-43 42 -56 l20 -23 112 62 c62 34 114 63 115 64 2 1 -9 33 -23 70 -20 51 -24
70 -15 79 22 22 176 106 190 104 9 -1 93 -234 238 -656z m-13332 490 c76 -38
147 -111 183 -189 36 -78 42 -203 15 -282 -23 -67 -361 -637 -410 -690 -110
-122 -301 -163 -448 -96 -76 35 -149 106 -187 183 -41 83 -50 202 -23 285 20
63 82 168 98 168 16 0 197 -109 197 -119 0 -5 -11 -29 -25 -52 -38 -67 -48
-113 -34 -157 34 -107 157 -133 236 -50 33 36 348 561 365 609 23 66 -28 159
-98 178 -39 11 -99 -2 -128 -27 -18 -16 -86 -115 -86 -126 0 -2 24 -18 54 -35
30 -16 57 -35 60 -40 6 -9 -97 -196 -114 -206 -10 -6 -330 185 -330 198 0 20
181 315 220 360 41 46 132 100 196 117 22 5 74 8 118 6 62 -3 91 -11 141 -35z
m1073 -572 l72 -32 1 -76 c1 -42 4 -220 8 -395 l6 -320 134 315 c74 173 139
319 145 326 16 18 200 -66 204 -93 3 -20 -529 -1210 -551 -1231 -11 -11 -28
-6 -97 24 l-83 38 6 415 7 415 -144 -330 c-79 -181 -150 -338 -158 -347 -12
-16 -20 -14 -108 26 -52 24 -96 48 -97 53 -3 8 532 1210 553 1245 4 5 11 7 18
5 6 -3 44 -20 84 -38z m11051 -569 c198 -319 362 -585 363 -592 4 -16 -202
-101 -216 -89 -6 5 -108 176 -226 379 -118 204 -216 369 -217 368 0 0 46 -190
103 -421 57 -231 102 -424 101 -429 -3 -9 -154 -75 -174 -76 -6 0 -109 168
-230 374 -120 205 -219 372 -221 371 -1 -1 43 -183 98 -405 55 -221 102 -411
103 -422 2 -17 -15 -28 -103 -64 -57 -24 -108 -40 -112 -36 -4 4 -74 310 -155
680 -124 569 -145 675 -133 682 8 5 62 28 119 51 94 38 105 41 116 26 6 -9 85
-143 175 -297 90 -154 164 -279 165 -278 2 2 -34 150 -80 329 -45 180 -80 331
-76 336 8 11 201 92 222 92 11 1 135 -190 378 -579z m-9601 -8 c3 -11 -436
-1271 -449 -1286 -8 -9 -189 49 -214 68 -11 9 28 129 208 646 122 349 225 640
229 646 9 14 220 -56 226 -74z m1000 -263 c50 -12 92 -27 92 -33 0 -6 -59
-253 -131 -550 -71 -296 -128 -540 -125 -543 2 -3 57 -17 120 -32 64 -16 119
-31 123 -35 8 -8 -37 -203 -51 -220 -9 -11 -85 5 -375 75 -201 49 -367 91
-370 94 -7 7 41 204 53 221 9 11 30 9 130 -17 65 -16 121 -27 124 -24 3 3 63
245 134 538 70 292 130 538 133 546 3 8 13 11 28 7 12 -3 64 -15 115 -27z
m5884 -11 c75 -35 148 -104 186 -176 32 -61 66 -192 54 -204 -5 -5 -57 -18
-116 -30 -120 -24 -119 -24 -130 44 -16 101 -87 166 -168 155 -54 -7 -86 -31
-109 -80 -24 -54 -24 -94 1 -134 25 -42 46 -52 225 -108 217 -69 276 -103 341
-199 56 -83 77 -162 72 -270 -3 -80 -8 -99 -37 -153 -41 -77 -113 -146 -189
-181 -50 -24 -69 -27 -157 -27 -90 0 -106 3 -160 29 -72 36 -153 114 -183 177
-28 58 -73 251 -61 263 5 5 56 19 114 32 l106 22 9 -21 c5 -12 16 -56 26 -97
22 -97 36 -123 79 -150 29 -18 47 -21 86 -18 106 11 159 117 110 223 -27 60
-71 91 -169 121 -217 64 -258 79 -316 118 -111 76 -156 163 -156 306 0 175 96
316 255 372 77 28 212 21 287 -14z m-4537 -203 c113 -30 204 -108 256 -220 48
-102 47 -144 -10 -535 -28 -190 -56 -361 -62 -380 -30 -95 -113 -184 -218
-234 -58 -27 -76 -31 -151 -30 -119 1 -186 28 -266 108 -69 70 -101 130 -116
219 -10 55 -5 102 40 430 56 406 65 437 142 521 106 115 243 158 385 121z
m3309 -688 c32 -373 57 -680 54 -682 -6 -6 -229 -27 -234 -22 -3 2 -15 123
-27 268 l-22 264 -25 2 c-14 2 -79 -3 -145 -10 l-120 -12 2 -30 c2 -16 12
-135 24 -264 11 -128 17 -237 12 -242 -11 -10 -216 -28 -226 -19 -9 8 -134
1356 -127 1364 10 9 225 24 233 16 5 -4 20 -135 34 -291 14 -156 26 -285 27
-286 8 -9 279 23 283 32 2 7 -7 137 -21 291 -14 153 -22 282 -18 286 8 8 94
15 177 14 l60 -1 59 -678z m-1748 568 c110 -54 198 -165 222 -281 17 -78 -2
-761 -22 -829 -35 -116 -140 -220 -259 -256 -188 -58 -380 29 -466 211 l-26
55 0 400 c1 456 2 469 79 573 84 113 188 164 327 159 70 -2 96 -8 145 -32z"/>
<path d="M16820 33704 c0 -17 82 -699 85 -702 3 -4 185 48 201 57 8 4 -38 116
-133 326 -79 176 -146 322 -149 324 -2 2 -4 0 -4 -5z"/>
<path d="M25075 33787 c-23 -13 -49 -39 -62 -62 -12 -22 -83 -209 -158 -415
-123 -337 -136 -380 -132 -427 7 -91 80 -163 167 -163 46 0 116 35 144 74 13
17 88 209 166 426 155 432 157 439 109 517 -44 71 -155 95 -234 50z"/>
<path d="M26836 33065 c-22 -8 -54 -29 -72 -47 -36 -37 -397 -714 -413 -774
-28 -104 54 -214 158 -214 60 1 122 29 153 71 14 19 109 194 212 390 172 329
186 360 186 408 0 80 -37 134 -112 166 -45 18 -61 18 -112 0z"/>
<path d="M13200 32259 c-34 -14 -200 -121 -200 -130 0 -12 192 -309 199 -309
3 1 51 31 106 68 114 77 145 117 145 194 0 81 -30 132 -102 169 -40 20 -107
24 -148 8z"/>
<path d="M20680 31270 l0 -880 -110 0 -110 0 0 877 0 876 -167 -7 c-1303 -53
-2616 -339 -3827 -832 -1777 -725 -3328 -1884 -4535 -3389 -1100 -1372 -1854
-2946 -2231 -4657 -164 -745 -259 -1594 -260 -2320 l0 -218 880 0 880 0 0
-115 0 -115 -880 0 -879 0 4 -27 c2 -16 7 -100 10 -188 20 -548 117 -1270 251
-1875 424 -1909 1298 -3621 2599 -5090 166 -187 708 -729 895 -895 1430 -1266
3067 -2128 4880 -2569 727 -177 1411 -272 2243 -312 l137 -6 0 881 0 881 110
0 110 0 0 -880 0 -880 194 0 c342 0 768 27 1186 76 1504 175 2987 662 4300
1412 885 505 1648 1089 2375 1816 553 553 984 1079 1420 1731 1147 1714 1802
3712 1891 5768 l7 157 -967 0 -966 0 0 115 0 115 971 0 972 0 -7 278 c-4 152
-11 358 -17 457 -137 2438 -1050 4761 -2602 6621 -440 528 -981 1064 -1513
1500 -1811 1484 -4012 2366 -6334 2539 -178 13 -704 35 -857 35 l-53 0 0 -880z
m790 -2420 c597 -47 1042 -145 1530 -335 991 -386 1962 -1145 2658 -2077 358
-480 620 -947 764 -1363 139 -400 201 -790 202 -1260 0 -551 -64 -964 -319
-2035 -57 -239 -124 -529 -150 -645 -25 -115 -65 -298 -90 -405 -56 -247 -71
-333 -90 -500 -17 -151 -43 -271 -74 -343 -40 -94 -24 -135 70 -183 70 -35
108 -74 128 -133 32 -98 -7 -445 -75 -662 -50 -158 -169 -295 -404 -464 -164
-119 -209 -155 -326 -266 -69 -66 -105 -92 -148 -108 -79 -29 -188 -44 -276
-38 -178 14 -270 90 -270 222 0 63 16 102 67 159 20 21 49 68 67 105 29 61 31
74 31 171 0 98 -2 110 -32 173 -98 207 -408 352 -680 318 -162 -20 -382 -88
-615 -188 -139 -60 -198 -110 -198 -168 0 -21 12 -63 28 -94 l27 -56 -1 -240
c0 -259 -15 -400 -59 -600 -44 -197 -94 -329 -203 -545 -180 -353 -179 -351
-192 -1000 -26 -1310 -94 -2410 -191 -3070 -24 -164 -33 -200 -60 -234 -31
-40 -64 -53 -169 -66 -52 -6 -174 -27 -271 -46 -199 -39 -220 -37 -238 18 -36
112 -51 450 -51 1203 0 710 12 1106 60 2015 11 206 31 596 45 865 13 270 29
508 35 530 25 84 109 136 262 164 32 6 70 17 85 24 l27 14 -40 25 c-173 109
-218 136 -282 166 -63 30 -80 34 -125 29 -63 -7 -224 -64 -231 -82 -3 -8 -1
-56 4 -107 44 -449 40 -1651 -10 -3098 -29 -838 -94 -1418 -191 -1716 -36
-110 -72 -126 -264 -118 -159 7 -172 9 -185 35 -28 52 -42 296 -47 799 -6 614
13 3059 27 3475 6 165 11 366 13 446 3 189 3 189 -128 189 -67 0 -96 -4 -104
-14 -9 -11 -9 -41 0 -128 17 -165 24 -2192 10 -2778 -19 -795 -61 -1413 -117
-1735 -31 -183 -40 -213 -75 -248 -27 -27 -33 -28 -82 -23 -28 4 -128 10 -220
14 -234 10 -219 -15 -232 377 -3 94 -24 577 -45 1075 -37 845 -59 1409 -76
1899 -4 113 -12 512 -18 887 l-11 683 -75 -46 c-66 -41 -160 -87 -212 -106
-16 -6 -13 -14 22 -64 78 -111 92 -197 110 -683 25 -669 32 -1618 21 -2655 -6
-566 -16 -1057 -21 -1090 -7 -50 -15 -65 -44 -92 -67 -62 -148 -55 -276 23
-167 102 -253 193 -305 322 -45 111 -54 214 -90 1012 -67 1475 -74 1649 -81
2190 -3 234 -10 458 -15 498 -6 47 -31 130 -69 233 -110 292 -159 480 -180
690 -16 161 -6 182 114 229 27 10 28 13 23 54 -4 24 -25 92 -47 151 -55 146
-70 207 -70 290 0 80 21 134 75 201 47 57 45 84 -10 143 -117 125 -260 145
-538 75 -294 -74 -533 -217 -869 -520 -73 -66 -163 -146 -200 -178 -37 -33
-70 -68 -74 -78 -7 -24 18 -53 71 -81 35 -19 63 -22 231 -27 207 -6 234 -13
254 -66 24 -61 -14 -102 -171 -182 -89 -46 -106 -52 -162 -52 -72 0 -98 12
-234 105 -49 32 -130 81 -181 107 -155 80 -208 69 -416 -82 -117 -86 -174
-110 -262 -110 -103 0 -182 45 -241 139 -20 31 -94 140 -165 243 -70 102 -140
211 -154 241 -36 81 -74 239 -80 337 -6 102 5 126 91 192 61 47 74 76 56 122
-44 106 -62 178 -80 308 -23 165 -20 209 23 282 44 76 101 110 246 150 113 31
204 74 208 99 2 11 -20 43 -57 83 -141 151 -251 301 -474 651 -167 262 -196
314 -240 433 -49 131 -78 251 -137 565 -214 1135 -266 1897 -185 2710 77 760
268 1288 632 1745 115 143 270 293 443 426 188 145 460 411 616 603 290 359
545 594 901 829 588 388 1239 588 2253 691 169 18 270 25 605 45 116 7 811 -3
945 -14z"/>
<path d="M15989 23425 c-37 -20 -57 -78 -74 -208 -39 -293 -37 -648 4 -820 11
-45 54 -181 96 -302 79 -226 114 -360 115 -430 1 -77 113 -257 248 -397 187
-194 353 -279 737 -376 196 -50 353 -82 595 -121 220 -36 1005 -141 1105 -148
87 -6 380 27 552 63 71 14 187 46 258 71 72 24 211 69 310 98 207 62 247 78
367 147 179 103 195 184 47 233 -30 10 -97 38 -149 62 -52 25 -243 109 -425
188 -726 316 -822 367 -1582 851 -505 322 -638 403 -953 579 -479 267 -713
381 -944 459 -194 65 -260 76 -307 51z"/>
<path d="M25455 23344 c-354 -76 -717 -209 -1061 -388 -263 -137 -487 -282
-823 -530 -812 -603 -1482 -960 -2265 -1209 -75 -23 -95 -88 -43 -138 47 -45
317 -150 922 -359 185 -64 398 -100 591 -100 121 0 864 96 1278 166 574 96
778 150 957 255 178 103 393 319 471 473 29 56 99 251 229 640 93 279 134 542
134 866 0 210 -1 217 -25 264 -35 68 -73 86 -175 85 -44 0 -129 -11 -190 -25z"/>
<path d="M20711 20784 c-19 -27 -85 -99 -146 -160 -131 -130 -164 -187 -270
-464 -98 -254 -180 -408 -255 -475 -30 -27 -66 -100 -75 -152 -8 -51 16 -187
51 -286 55 -153 215 -426 277 -471 21 -16 32 -18 45 -10 31 20 41 58 51 209 6
88 17 171 26 200 10 27 48 92 86 144 82 114 168 283 203 401 53 179 57 226 49
689 l-8 423 -34 -48z"/>
<path d="M20959 20698 c-8 -29 -13 -144 -13 -348 -1 -168 -5 -310 -9 -316 -11
-18 11 -211 33 -294 30 -106 88 -223 166 -326 36 -49 74 -105 84 -124 49 -96
80 -267 80 -447 0 -89 14 -188 29 -197 8 -5 92 97 150 181 88 132 239 476 271
620 19 82 -3 135 -116 284 -85 113 -171 243 -207 314 -13 28 -41 103 -61 167
-67 212 -147 335 -264 401 -38 21 -64 45 -85 79 -17 26 -34 48 -38 48 -5 0
-14 -19 -20 -42z"/>
<path d="M10204 12553 c-192 -200 -205 -215 -154 -186 30 17 148 81 263 143
114 61 207 113 207 116 0 2 -24 35 -54 73 l-54 70 -208 -216z"/>
<path d="M30664 12262 c-27 -31 -53 -62 -57 -69 -6 -10 246 -185 463 -321 24
-16 25 -16 9 3 -138 172 -336 414 -348 427 -15 16 -19 13 -67 -40z"/>
<path d="M29948 10857 c-61 -57 -78 -80 -83 -109 -22 -118 65 -205 180 -184
24 5 61 29 110 72 41 36 75 69 75 73 0 10 -190 221 -198 221 -4 0 -42 -33 -84
-73z"/>
<path d="M27303 9488 c-47 -27 -69 -45 -64 -52 5 -6 84 -110 176 -231 92 -121
171 -224 175 -228 4 -5 -38 116 -94 269 -57 153 -107 279 -112 280 -5 2 -42
-16 -81 -38z"/>
<path d="M19094 7960 c-30 -12 -81 -74 -88 -107 -15 -74 -86 -620 -86 -662 0
-111 109 -178 207 -128 61 32 68 57 117 405 25 178 46 339 46 358 0 76 -64
144 -133 143 -23 0 -51 -4 -63 -9z"/>
<path d="M20601 7867 c-19 -6 -48 -29 -65 -50 l-31 -39 -9 -354 c-8 -333 -8
-356 9 -395 22 -48 55 -76 100 -85 64 -12 139 33 163 96 6 14 13 183 17 375
l7 350 -23 34 c-47 67 -105 91 -168 68z"/>
</g>
</svg>
